<?xml version="1.0" encoding="UTF-8"?>
<svg version="1.1" xmlns="http://www.w3.org/2000/svg" width="512" height="512">
<path d="M0 0 C10.23 0 20.46 0 31 0 C31.33 10.56 31.66 21.12 32 32 C34.11921875 29.82277344 36.2384375 27.64554688 38.421875 25.40234375 C40.4774555 23.30779655 42.53732143 21.21755498 44.59765625 19.12768555 C46.02993575 17.67022419 47.45770063 16.20831213 48.88085938 14.74194336 C50.92454938 12.6377681 52.98381609 10.55000979 55.046875 8.46484375 C55.68244324 7.80346909 56.31801147 7.14209442 56.97283936 6.4606781 C57.57315979 5.85998001 58.17348022 5.25928192 58.79199219 4.64038086 C59.31605652 4.10521347 59.84012085 3.57004608 60.38006592 3.0186615 C62 2 62 2 64.06311035 2.21887207 C66.84755121 3.3418088 68.45157278 5.11613168 70.546875 7.25390625 C71.39121094 8.10791016 72.23554688 8.96191406 73.10546875 9.84179688 C73.97816406 10.73962891 74.85085938 11.63746094 75.75 12.5625 C76.63816406 13.46419922 77.52632813 14.36589844 78.44140625 15.29492188 C80.63448315 17.52337098 82.82026044 19.75851593 85 22 C83.71977125 24.80969467 82.39285871 26.8539238 80.20263672 29.02441406 C79.64220673 29.58469299 79.08177673 30.14497192 78.50436401 30.722229 C77.90222076 31.31404968 77.30007751 31.90587036 76.6796875 32.515625 C75.75169846 33.4393692 75.75169846 33.4393692 74.80496216 34.3817749 C72.83296186 36.34260336 70.85411263 38.29635301 68.875 40.25 C67.53469836 41.58026799 66.19484917 42.910992 64.85546875 44.2421875 C61.57635055 47.50098898 58.28806063 50.7501233 55 54 C70.84 54.495 70.84 54.495 87 55 C87 65.23 87 75.46 87 86 C82.50503906 85.87496094 78.01007813 85.74992187 73.37890625 85.62109375 C70.49357918 85.57972294 67.60994996 85.54352208 64.72460938 85.52539062 C60.16491318 85.49626137 55.61069295 85.45033366 51.0534668 85.2902832 C31.03860352 84.18809469 31.03860352 84.18809469 13.78756714 92.96243286 C10.63166963 96.44910626 7.8502735 100.2593421 5 104 C15.23 104.33 25.46 104.66 36 105 C36 112.67121397 35.98541208 120.18365884 35.5 127.8125 C35.45230469 128.61236328 35.40460938 129.41222656 35.35546875 130.23632812 C35.2404129 132.15776078 35.12074152 134.07891625 35 136 C34.31954117 135.90371811 33.63908234 135.80743622 32.93800354 135.70823669 C24.16546266 134.53395957 15.40124966 133.81007392 6.5625 133.4375 C5.85617809 133.40743237 5.14985619 133.37736473 4.42213058 133.34638596 C-15.61875011 132.63107775 -29.87548019 135.79725835 -44.84800911 149.59293556 C-48.88414868 153.42519329 -52.69551152 157.44441704 -56.4375 161.5625 C-56.9695039 162.14757702 -57.5015078 162.73265404 -58.04963303 163.33546066 C-64.66170104 170.65863892 -70.9559733 178.20034243 -77 186 C-76.04637535 187.44171861 -75.09125186 188.88244589 -74.13549805 190.32275391 C-73.60377487 191.1251651 -73.0720517 191.92757629 -72.5242157 192.75430298 C-70.73403815 195.39185382 -68.79644014 197.88068454 -66.8125 200.375 C-52.78422976 219.02434749 -43.22094995 240.59070447 -37 263 C-36.46439453 264.79630859 -36.46439453 264.79630859 -35.91796875 266.62890625 C-22.86522888 313.51121913 -30.2248615 367.2863694 -53.67041016 409.67578125 C-62.87278969 425.76220305 -73.86709377 440.22738505 -86.66601562 453.60302734 C-87.80358673 454.79431246 -88.92678224 455.99929764 -90.046875 457.20703125 C-114.43712526 482.79594765 -148.8494271 499.56441405 -182.8125 507.8125 C-183.61075195 508.00739014 -184.40900391 508.20228027 -185.23144531 508.40307617 C-199.19890758 511.60948773 -212.92582809 512.37527371 -227.1875 512.3125 C-228.04783844 512.31067719 -228.90817688 512.30885437 -229.79458618 512.30697632 C-242.43559159 512.261886 -254.626328 511.77628702 -267 509 C-267.77085937 508.8443457 -268.54171875 508.68869141 -269.3359375 508.52832031 C-306.00285336 501.09704004 -338.77424285 482.0059864 -365.60302734 456.33398438 C-366.79431246 455.19641327 -367.99929764 454.07321776 -369.20703125 452.953125 C-404.94338017 418.8907802 -424.04683617 367.10714153 -425.28344727 318.5246582 C-425.89154969 264.3728819 -404.43558533 214.29257668 -367.38671875 175.3671875 C-352.69570963 160.42919784 -335.48205526 148.69240829 -317 139 C-316.32372559 138.64325195 -315.64745117 138.28650391 -314.95068359 137.91894531 C-268.32696575 113.72750805 -213.39220741 112.49238374 -164 128 C-140.72581805 135.5840672 -120.48573792 148.45801205 -101 163 C-90.5986345 158.22930377 -81.6822859 149.0846438 -73.25 141.4375 C-72.6973283 140.93768993 -72.1446566 140.43787987 -71.57523727 139.92292404 C-56.91671619 126.51353244 -47.74652267 114.4808304 -46.78859329 94.16761208 C-46.33169811 79.05092219 -48.03356031 63.955169 -50 49 C-39.77 49 -29.54 49 -19 49 C-18.67 59.89 -18.34 70.78 -18 82 C-4.28998907 71.80646624 -4.28998907 71.80646624 1.48535156 56.51464844 C2.06415537 48.71901254 1.66750719 40.88937091 1.23596191 33.09606934 C1.04912906 29.35632929 0.968066 25.61422525 0.87890625 21.87109375 C0.69745758 14.56879275 0.34575964 7.30363891 0 0 Z " fill="#FE9900" transform="translate(425,0)"/>
<path d="M0 0 C-1.29719924 2.85779017 -2.6636826 4.91008536 -4.88916016 7.11621094 C-5.4696109 7.69651062 -6.05006165 8.2768103 -6.64810181 8.87469482 C-7.27211884 9.48838928 -7.89613586 10.10208374 -8.5390625 10.734375 C-9.17991791 11.37240051 -9.82077332 12.01042603 -10.48104858 12.66778564 C-12.52437821 14.69994069 -14.57455982 16.72502218 -16.625 18.75 C-18.0134786 20.1284453 -19.4015049 21.50734636 -20.7890625 22.88671875 C-24.18748697 26.26311894 -27.59207254 29.63319288 -31 33 C-34.8950302 30.79714717 -38.57080174 28.66238533 -42.125 25.9375 C-69.37550919 6.72133547 -101.94565056 -1.53110944 -135 0 C-136.19496094 0.03351563 -137.38992187 0.06703125 -138.62109375 0.1015625 C-177.4349677 1.98045067 -213.73792718 21.37975502 -240.1875 49.25 C-246.12653432 56.02771569 -251.14274461 63.42568802 -256 71 C-256.37398926 71.58120605 -256.74797852 72.16241211 -257.13330078 72.76123047 C-272.34672453 96.80644336 -278.4679409 123.71561208 -278.3125 151.875 C-278.30968018 152.61901062 -278.30686035 153.36302124 -278.30395508 154.12957764 C-278.24044044 165.31204932 -277.99238149 176.1643061 -275 187 C-274.7525 187.8976709 -274.505 188.7953418 -274.25 189.72021484 C-266.71241651 216.05377477 -253.88099222 238.21991291 -235 258 C-234.12408203 258.97066406 -234.12408203 258.97066406 -233.23046875 259.9609375 C-216.13774287 278.20807406 -192.087135 290.34963214 -168.375 297.25 C-167.10499146 297.6197998 -167.10499146 297.6197998 -165.80932617 297.99707031 C-153.1759053 301.51452994 -141.03757487 302.40896569 -128 302.375 C-127.17918945 302.37412384 -126.35837891 302.37324768 -125.51269531 302.37234497 C-112.92278376 302.32801646 -101.13031243 301.61272916 -89 298 C-88.17258301 297.76925781 -87.34516602 297.53851563 -86.49267578 297.30078125 C-59.93276231 289.79870967 -37.20394411 275.72296963 -18 256 C-17.48977295 255.51313721 -16.9795459 255.02627441 -16.45385742 254.5246582 C-12.06206298 250.29089121 -8.4562065 245.8296109 -5 240.8125 C-4.48018555 240.06274902 -3.96037109 239.31299805 -3.42480469 238.54052734 C20.22489806 204.11346474 29.10784308 162.70923741 21.54345703 121.51367188 C16.60415331 97.23943766 5.60581032 74.22454894 -10 55 C-8.72669411 52.22039325 -7.40171491 50.14256704 -5.26611328 47.9597168 C-4.71859406 47.39621017 -4.17107483 46.83270355 -3.60696411 46.25212097 C-3.01736908 45.65716324 -2.42777405 45.06220551 -1.8203125 44.44921875 C-1.21113983 43.83101761 -0.60196716 43.21281647 0.02566528 42.57588196 C1.31238672 41.27468158 2.60191363 39.97625026 3.89404297 38.68041992 C5.87327926 36.68923114 7.83309886 34.68015192 9.79296875 32.66992188 C11.04572296 31.40770971 12.2995919 30.14660274 13.5546875 28.88671875 C14.14023407 28.28163986 14.72578064 27.67656097 15.32907104 27.05314636 C17.00732422 25.39331055 17.00732422 25.39331055 20 23 C23.54775667 23.29698754 24.09038965 24.10087158 26.59375 26.89453125 C27.57675521 28.18982508 28.54449728 29.4967873 29.5 30.8125 C30.28177612 31.87742676 30.28177612 31.87742676 31.0793457 32.96386719 C44.70250057 51.86913625 55.5555231 72.55487076 62 95 C62.21108398 95.71494629 62.42216797 96.42989258 62.63964844 97.16650391 C76.59283911 145.22407911 71.20715482 199.09724281 47.63671875 243.3125 C38.22897949 260.32163635 26.75478597 275.57748335 13.33398438 289.60302734 C12.19641327 290.79431246 11.07321776 291.99929764 9.953125 293.20703125 C-14.43712526 318.79594765 -48.8494271 335.56441405 -82.8125 343.8125 C-83.61075195 344.00739014 -84.40900391 344.20228027 -85.23144531 344.40307617 C-99.19890758 347.60948773 -112.92582809 348.37527371 -127.1875 348.3125 C-128.04783844 348.31067719 -128.90817688 348.30885437 -129.79458618 348.30697632 C-142.43559159 348.261886 -154.626328 347.77628702 -167 345 C-167.77085937 344.8443457 -168.54171875 344.68869141 -169.3359375 344.52832031 C-206.00285336 337.09704004 -238.77424285 318.0059864 -265.60302734 292.33398438 C-266.79431246 291.19641327 -267.99929764 290.07321776 -269.20703125 288.953125 C-304.94338017 254.8907802 -324.04683617 203.10714153 -325.28344727 154.5246582 C-325.89154969 100.3728819 -304.43558533 50.29257668 -267.38671875 11.3671875 C-252.69570963 -3.57080216 -235.48205526 -15.30759171 -217 -25 C-216.32372559 -25.35674805 -215.64745117 -25.71349609 -214.95068359 -26.08105469 C-143.84176144 -62.97701898 -61.4673803 -46.9681739 0 0 Z " fill="#FE4F19" transform="translate(325,164)"/>
<path d="M0 0 C1.60294922 0.72896484 1.60294922 0.72896484 3.23828125 1.47265625 C9.73587222 4.56871294 16.78953965 7.95092559 22 13 C22 17 22 17 20.89904785 18.58197021 C20.38386597 19.08826965 19.86868408 19.59456909 19.33789062 20.11621094 C18.46698792 20.98666046 18.46698792 20.98666046 17.57849121 21.87469482 C16.94415161 22.48838928 16.30981201 23.10208374 15.65625 23.734375 C15.0125647 24.37240051 14.36887939 25.01042603 13.70568848 25.66778564 C11.64631417 27.70475781 9.57347377 29.72739136 7.5 31.75 C6.10195554 33.12798458 4.70480834 34.50688012 3.30859375 35.88671875 C-0.11727956 39.26847364 -3.55529576 42.63743287 -7 46 C-11.22302214 44.63091579 -15.08592925 43.0382172 -19.0625 41.0625 C-35.89201305 33.32848782 -57.31609077 31.85889795 -75 38 C-96.28292606 46.67121458 -112.54234493 60.90287665 -121.875 82.0625 C-129.18150694 101.2768435 -129.5821729 122.55536581 -121.33300781 141.58837891 C-117.81621942 149.25295839 -113.64172737 155.69454 -108 162 C-107.3709375 162.82371094 -106.741875 163.64742187 -106.09375 164.49609375 C-94.47458768 178.39139794 -74.52079847 186.40556805 -56.87060547 188.21875 C-35.2621341 189.80797336 -14.35913783 182.09282415 2 168 C15.82647827 154.87388256 25.44654533 136.33477635 26.3359375 117.08984375 C26.61758057 101.19997019 24.42384296 88.13507687 16.46679688 74.2253418 C15.4140625 72.328125 15.4140625 72.328125 14 69 C15.25969929 64.69703818 18.94748805 61.81961768 22.06640625 58.7734375 C22.66049789 58.18454742 23.25458954 57.59565735 23.86668396 56.98892212 C25.76059274 55.11279192 27.66106431 53.24349895 29.5625 51.375 C31.46661442 49.49849536 33.36925439 47.62055424 35.26902771 45.73965454 C36.45042549 44.57052276 37.63448601 43.40407442 38.82142639 42.24057007 C41.77936873 39.4025795 41.77936873 39.4025795 44 36 C44.66 36 45.32 36 46 36 C66.79876775 58.98500186 72.14944823 91.87925502 71.1953125 121.57275391 C70.73760131 129.6044411 69.1850334 137.2731419 67 145 C66.79632813 145.72687012 66.59265625 146.45374023 66.3828125 147.20263672 C61.61393301 163.54414429 53.37505791 178.35874039 42 191 C41.35546875 191.77472656 40.7109375 192.54945313 40.046875 193.34765625 C20.63316031 216.35211898 -8.53909529 229.45635344 -38 233 C-69.62688995 235.39029819 -101.96562402 228.08724957 -126.58203125 207.140625 C-127.37996094 206.43421875 -128.17789063 205.7278125 -129 205 C-129.95261719 204.19046875 -130.90523437 203.3809375 -131.88671875 202.546875 C-148.63978176 188.04482771 -159.59031361 169.73352615 -167 149 C-167.39058594 147.93394531 -167.78117187 146.86789062 -168.18359375 145.76953125 C-177.52708316 118.21821632 -173.85960407 86.13337691 -162 60 C-152.07480609 40.02814118 -137.46365723 20.5284739 -118 9 C-116.93523437 8.34902344 -115.87046875 7.69804687 -114.7734375 7.02734375 C-79.86311606 -13.90511648 -37.21616832 -17.17339873 0 0 Z " fill="#FE4F1A" transform="translate(248,204)"/>
<path d="M0 0 C36.65901129 -1.61064144 71.79742298 10.5336544 100.61767578 33.11035156 C98.25445473 38.54945011 93.86220273 42.27431386 89.74267578 46.42285156 C88.92669922 47.27169922 88.11072266 48.12054688 87.27001953 48.99511719 C86.08472656 50.19104492 86.08472656 50.19104492 84.87548828 51.41113281 C84.15506348 52.14501221 83.43463867 52.8788916 82.69238281 53.63500977 C80.61767578 55.11035156 80.61767578 55.11035156 78.55078125 54.96679688 C76.05765967 53.86224137 73.85344781 52.39106703 71.59521484 50.87255859 C44.68424469 32.84553093 11.31701335 27.57533716 -20.38232422 33.11035156 C-42.90416426 37.62860663 -62.92700758 49.35297658 -79.38232422 65.11035156 C-80.20345703 65.85671875 -81.02458984 66.60308594 -81.87060547 67.37207031 C-89.06159342 74.13808541 -94.30132954 81.71465302 -99.38232422 90.11035156 C-99.75131836 90.71508301 -100.1203125 91.31981445 -100.50048828 91.94287109 C-108.16353052 104.72271352 -113.32367261 119.32548999 -115.38232422 134.11035156 C-115.49189453 134.85414063 -115.60146484 135.59792969 -115.71435547 136.36425781 C-119.57809393 167.63478107 -111.48451149 198.89732547 -93.00732422 224.42285156 C-72.08151242 250.95314165 -44.81037793 267.43988627 -11.38232422 273.11035156 C3.65863285 273.924777 19.01450299 274.11496613 33.61767578 270.11035156 C34.26414063 269.93874512 34.91060547 269.76713867 35.57666016 269.59033203 C61.6981535 262.5435743 85.41010863 248.01334894 101.61767578 226.11035156 C102.21837891 225.335625 102.81908203 224.56089844 103.43798828 223.76269531 C122.74371112 197.83415724 129.35418711 164.10731485 124.92236328 132.43847656 C121.59870275 112.76129524 113.42136992 92.5404445 100.61767578 77.11035156 C105.00210104 71.8586023 109.62609671 66.97812683 114.49267578 62.17285156 C115.52521484 61.14708008 115.52521484 61.14708008 116.57861328 60.10058594 C118.25601089 58.43483692 119.93571369 56.77148936 121.61767578 55.11035156 C146.56709844 79.33844738 157.27116388 117.89234733 157.80517578 151.73535156 C157.73842761 173.21029111 153.58173423 194.55432782 144.61767578 214.11035156 C144.31990234 214.76342285 144.02212891 215.41649414 143.71533203 216.08935547 C137.40670704 229.76349646 129.27662735 241.54345894 119.61767578 253.11035156 C119.03244141 253.81933594 118.44720703 254.52832031 117.84423828 255.25878906 C95.2281091 281.96833529 58.21468473 300.30861765 23.61767578 304.11035156 C17.62348272 304.49036002 11.62169963 304.50099334 5.61767578 304.48535156 C4.79686523 304.4844754 3.97605469 304.48359924 3.13037109 304.48269653 C-9.45650976 304.43837869 -21.25640562 303.73123144 -33.38232422 300.11035156 C-34.22037598 299.87429199 -35.05842773 299.63823242 -35.921875 299.39501953 C-74.19364409 288.46526187 -107.73820946 262.54529464 -127.31982422 227.79785156 C-139.64491746 205.25590472 -146.7931255 181.26059928 -146.64306641 155.48217773 C-146.63238604 153.31042239 -146.64300848 151.13950328 -146.65576172 148.96777344 C-146.67077278 135.84996033 -145.76127859 122.80763324 -141.75732422 110.23535156 C-141.36710083 108.98455811 -141.36710083 108.98455811 -140.96899414 107.70849609 C-134.4962464 87.63557741 -124.47621963 68.87640406 -110.38232422 53.11035156 C-109.08681641 51.61761719 -109.08681641 51.61761719 -107.76513672 50.09472656 C-101.84027058 43.35942338 -95.53775743 37.55626067 -88.38232422 32.11035156 C-87.53283203 31.44519531 -86.68333984 30.78003906 -85.80810547 30.09472656 C-60.79128818 11.09839894 -31.1722925 1.44393074 0 0 Z " fill="#FEFDFD" transform="translate(192.38232421875,162.8896484375)"/>
<path d="M0 0 C3.4675353 1.45805361 5.32467904 4.68193844 7.47506714 7.64299011 C7.99625122 8.35294128 8.5174353 9.06289246 9.05441284 9.7943573 C22.67756771 28.69962636 33.53059024 49.38536088 39.97506714 71.83049011 C40.29169312 72.90290955 40.29169312 72.90290955 40.61471558 73.99699402 C54.56790625 122.05456923 49.18222196 175.92773293 25.61178589 220.14299011 C16.20404663 237.15212646 4.72985311 252.40797346 -8.69094849 266.43351746 C-9.82851959 267.62480257 -10.9517151 268.82978776 -12.07180786 270.03752136 C-42.00034876 301.43690936 -87.27008201 320.87836104 -130.02493286 324.83049011 C-136.62493286 324.83049011 -143.22493286 324.83049011 -150.02493286 324.83049011 C-150.02493286 310.31049011 -150.02493286 295.79049011 -150.02493286 280.83049011 C-146.82820053 280.19114365 -144.08491334 279.69061234 -140.89993286 279.47111511 C-101.9025124 276.41914308 -67.40794894 260.95358771 -40.02493286 232.83049011 C-39.51470581 232.34362732 -39.00447876 231.85676453 -38.47879028 231.35514832 C-34.08699584 227.12138133 -30.48113936 222.66010101 -27.02493286 217.64299011 C-26.50511841 216.89323914 -25.98530396 216.14348816 -25.44973755 215.37101746 C-1.8000348 180.94395485 7.08291022 139.53972752 -0.48147583 98.34416199 C-5.42077955 74.06992777 -16.41912255 51.05503905 -32.02493286 31.83049011 C-30.75162697 29.05088336 -29.42664777 26.97305716 -27.29104614 24.79020691 C-26.74352692 24.22670029 -26.19600769 23.66319366 -25.63189697 23.08261108 C-25.04230194 22.48765335 -24.45270691 21.89269562 -23.84524536 21.27970886 C-23.23607269 20.66150772 -22.62690002 20.04330658 -21.99926758 19.40637207 C-20.71254614 18.10517169 -19.42301923 16.80674037 -18.13088989 15.51091003 C-16.15165361 13.51972125 -14.191834 11.51064203 -12.23196411 9.50041199 C-10.97920991 8.23819982 -9.72534097 6.97709285 -8.47024536 5.71720886 C-7.88469879 5.11212997 -7.29915222 4.50705109 -6.69586182 3.88363647 C-2.55304284 -0.21371869 -2.55304284 -0.21371869 0 0 Z " fill="#EE2600" transform="translate(347.0249328613281,187.1695098876953)"/>
<path d="M0 0 C10.23 0 20.46 0 31 0 C31.33 10.56 31.66 21.12 32 32 C34.11921875 29.82277344 36.2384375 27.64554688 38.421875 25.40234375 C40.4774555 23.30779655 42.53732143 21.21755498 44.59765625 19.12768555 C46.02993575 17.67022419 47.45770063 16.20831213 48.88085938 14.74194336 C50.92454938 12.6377681 52.98381609 10.55000979 55.046875 8.46484375 C55.68244324 7.80346909 56.31801147 7.14209442 56.97283936 6.4606781 C57.57315979 5.85998001 58.17348022 5.25928192 58.79199219 4.64038086 C59.31605652 4.10521347 59.84012085 3.57004608 60.38006592 3.0186615 C62 2 62 2 64.06311035 2.21887207 C66.84755121 3.3418088 68.45157278 5.11613168 70.546875 7.25390625 C71.39121094 8.10791016 72.23554688 8.96191406 73.10546875 9.84179688 C73.97816406 10.73962891 74.85085938 11.63746094 75.75 12.5625 C76.63816406 13.46419922 77.52632813 14.36589844 78.44140625 15.29492188 C80.63448315 17.52337098 82.82026044 19.75851593 85 22 C83.71977125 24.80969467 82.39285871 26.8539238 80.20263672 29.02441406 C79.64220673 29.58469299 79.08177673 30.14497192 78.50436401 30.722229 C77.90222076 31.31404968 77.30007751 31.90587036 76.6796875 32.515625 C76.06102814 33.13145447 75.44236877 33.74728394 74.80496216 34.3817749 C72.83296186 36.34260336 70.85411263 38.29635301 68.875 40.25 C67.53469836 41.58026799 66.19484917 42.910992 64.85546875 44.2421875 C61.57635055 47.50098898 58.28806063 50.7501233 55 54 C70.84 54.495 70.84 54.495 87 55 C87 65.23 87 75.46 87 86 C82.50503906 85.87496094 78.01007813 85.74992187 73.37890625 85.62109375 C70.49357918 85.57972294 67.60994996 85.54352208 64.72460938 85.52539062 C60.16491318 85.49626137 55.61069295 85.45033366 51.0534668 85.2902832 C31.03860352 84.18809469 31.03860352 84.18809469 13.78756714 92.96243286 C10.63166963 96.44910626 7.8502735 100.2593421 5 104 C15.23 104.33 25.46 104.66 36 105 C36 112.67121397 35.98541208 120.18365884 35.5 127.8125 C35.45230469 128.61236328 35.40460938 129.41222656 35.35546875 130.23632812 C35.2404129 132.15776078 35.12074152 134.07891625 35 136 C27.29616583 136.02350257 19.59234057 136.04110321 11.88847923 136.05181217 C8.30861491 136.05696018 4.72877567 136.06390429 1.14892578 136.07543945 C-15.59291752 136.12800327 -32.28002575 135.98542307 -49 135 C-49.73360446 106.32699171 -50.14136994 77.68239023 -50 49 C-39.77 49 -29.54 49 -19 49 C-18.67 59.89 -18.34 70.78 -18 82 C-4.28998907 71.80646624 -4.28998907 71.80646624 1.48535156 56.51464844 C2.06415537 48.71901254 1.66750719 40.88937091 1.23596191 33.09606934 C1.04912906 29.35632929 0.968066 25.61422525 0.87890625 21.87109375 C0.69745758 14.56879275 0.34575964 7.30363891 0 0 Z " fill="#FF4F19" transform="translate(425,0)"/>
<path d="M0 0 C0 5.6382457 -5.77980967 9.42237204 -9.5625 13.25 C-10.45775391 14.19875 -11.35300781 15.1475 -12.27539062 16.125 C-13.15517578 17.01703125 -14.03496094 17.9090625 -14.94140625 18.828125 C-15.74263916 19.6521582 -16.54387207 20.47619141 -17.36938477 21.32519531 C-20 23 -20 23 -23.60180664 22.82543945 C-25.89409894 22.26862932 -28.17135975 21.64645748 -30.4296875 20.96484375 C-41.84764457 17.87924704 -53.65047417 19.44167208 -64 25 C-76.00048594 32.24353656 -82.65016893 41.58856985 -87.3125 54.6875 C-90.09506877 68.43504276 -87.53417317 80.95326943 -80.2890625 92.796875 C-78.63985162 95.02069781 -76.9285719 97.01596032 -75 99 C-74.21882813 99.82177734 -74.21882813 99.82177734 -73.421875 100.66015625 C-63.10131928 110.45466423 -51.39890583 112.48058841 -37.85546875 112.28125 C-28.51489281 111.91956265 -20.45881595 108.51303787 -13 103 C-12.40703125 102.58234375 -11.8140625 102.1646875 -11.203125 101.734375 C-2.32084941 94.89580884 2.91171518 84.48195816 4.5 73.5625 C5.55466626 62.84005966 3.98295219 53.95738047 0 44 C10.395 33.605 10.395 33.605 21 23 C24.6468449 24.21561497 25.1869709 25.66234323 26.90625 28.96166992 C36.23350833 47.96286735 39.65489319 68.05557357 33.18359375 88.65625 C32.79300781 89.7596875 32.40242187 90.863125 32 92 C31.49146484 93.53140625 31.49146484 93.53140625 30.97265625 95.09375 C23.67712103 114.82544668 8.14980652 128.63763426 -10.3125 137.8125 C-29.15511462 145.75784848 -50.04517167 146.77809106 -69.15576172 139.13818359 C-77.55987463 135.47270182 -85.07388932 131.04337108 -92 125 C-93.4540625 123.83791016 -93.4540625 123.83791016 -94.9375 122.65234375 C-108.66704305 111.18669184 -117.21138002 92.52152969 -119 75 C-120.58498822 54.2596841 -115.90901261 35.11908317 -103 18.5 C-101.68723964 16.98196244 -100.35479944 15.48064049 -99 14 C-98.40960938 13.31808594 -97.81921875 12.63617188 -97.2109375 11.93359375 C-71.87023036 -15.61768571 -31.23672023 -17.37542563 0 0 Z " fill="#FEFDFC" transform="translate(239,249)"/>
<path d="M0 0 C0.66 0 1.32 0 2 0 C22.79876775 22.98500186 28.14944823 55.87925502 27.1953125 85.57275391 C26.73760131 93.6044411 25.1850334 101.2731419 23 109 C22.79632813 109.72687012 22.59265625 110.45374023 22.3828125 111.20263672 C17.61393301 127.54414429 9.37505791 142.35874039 -2 155 C-2.64453125 155.77472656 -3.2890625 156.54945313 -3.953125 157.34765625 C-23.31134957 180.28636545 -52.58175018 193.57263109 -82 197 C-86.29 197 -90.58 197 -95 197 C-95 182.48 -95 167.96 -95 153 C-88.73 152.01 -82.46 151.02 -76 150 C-54.52337677 144.10445637 -38.17746937 131.54344069 -26.82421875 112.47265625 C-17.13651152 94.03074677 -14.95219707 72.90357103 -20.5703125 52.87109375 C-22.32506431 47.74009392 -24.84481148 42.92492693 -27.53320312 38.2253418 C-28.5859375 36.328125 -28.5859375 36.328125 -30 33 C-28.74030071 28.69703818 -25.05251195 25.81961768 -21.93359375 22.7734375 C-21.33950211 22.18454742 -20.74541046 21.59565735 -20.13331604 20.98892212 C-18.23940726 19.11279192 -16.33893569 17.24349895 -14.4375 15.375 C-12.53338558 13.49849536 -10.63074561 11.62055424 -8.73097229 9.73965454 C-7.54957451 8.57052276 -6.36551399 7.40407442 -5.17857361 6.24057007 C-2.22063127 3.4025795 -2.22063127 3.4025795 0 0 Z " fill="#EE2600" transform="translate(292,240)"/>
<path d="M0 0 C24.94942266 24.22809582 35.6534881 62.78199576 36.1875 96.625 C36.12075183 118.09993955 31.96405845 139.44397626 23 159 C22.70222656 159.65307129 22.40445313 160.30614258 22.09765625 160.97900391 C15.78903126 174.6531449 7.65895157 186.43310738 -2 198 C-2.58523438 198.70898438 -3.17046875 199.41796875 -3.7734375 200.1484375 C-25.83222151 226.1997616 -61.33516368 243.88412135 -94.87109375 248.765625 C-101.91050513 249.29292173 -108.9451974 249.10689095 -116 249 C-116 239.43 -116 229.86 -116 220 C-117.32 219.67 -118.64 219.34 -120 219 C-118.5459375 218.94392578 -118.5459375 218.94392578 -117.0625 218.88671875 C-82.8384096 217.3169646 -49.90744693 204.70660409 -26.3671875 179.140625 C-24.15366323 176.48439588 -22.05643484 173.7790776 -20 171 C-19.39929688 170.22527344 -18.79859375 169.45054687 -18.1796875 168.65234375 C1.12603534 142.72380568 7.73651133 108.99696328 3.3046875 77.328125 C-0.01897303 57.65094368 -8.19630586 37.43009293 -21 22 C-16.61557474 16.74825074 -11.99157907 11.86777527 -7.125 7.0625 C-6.43664062 6.37865234 -5.74828125 5.69480469 -5.0390625 4.99023438 C-3.36166489 3.32448536 -1.68196209 1.6611378 0 0 Z " fill="#C8C5CB" transform="translate(314,218)"/>
<path d="M0 0 C17.86361669 0 17.86361669 0 25.8125 1.0625 C26.77115967 1.19043945 27.72981934 1.31837891 28.7175293 1.45019531 C66.27180958 6.95287546 98.17015465 23.2065548 128 46 C126.70280076 48.85779017 125.3363174 50.91008536 123.11083984 53.11621094 C122.5303891 53.69651062 121.94993835 54.2768103 121.35189819 54.87469482 C120.72788116 55.48838928 120.10386414 56.10208374 119.4609375 56.734375 C118.82008209 57.37240051 118.17922668 58.01042603 117.51895142 58.66778564 C115.47562179 60.69994069 113.42544018 62.72502218 111.375 64.75 C109.9865214 66.1284453 108.5984951 67.50734636 107.2109375 68.88671875 C103.81251303 72.26311894 100.40792746 75.63319288 97 79 C93.1049698 76.79714717 89.42919826 74.66238533 85.875 71.9375 C68.36168434 59.5876847 49.17781804 52.51646439 28.375 48.1875 C27.38661133 47.98012207 26.39822266 47.77274414 25.37988281 47.55908203 C16.78788104 45.89162017 8.93929284 45.5587058 0 45 C0 30.15 0 15.3 0 0 Z " fill="#EE2700" transform="translate(197,118)"/>
<path d="M0 0 C-1.58468928 3.84021169 -4.03092801 6.28926575 -6.9453125 9.2109375 C-7.43401825 9.7015567 -7.922724 10.1921759 -8.42623901 10.69766235 C-9.46106338 11.73384484 -10.49840628 12.7675174 -11.53808594 13.79882812 C-13.10583038 15.35596015 -14.66273876 16.92334115 -16.21875 18.4921875 C-21.0376252 23.31616519 -25.8218407 27.95137329 -31.47216797 31.81542969 C-34.07588742 33.83416519 -35.0107542 35.90860689 -36 39 C-36.72613354 45.53520187 -35.50060095 48.53031101 -32 54 C-32 54.66 -32 55.32 -32 56 C-25.40319105 58.67438201 -20.13834861 59.69642425 -13 59 C-8.64063895 57.14323511 -6.99138515 55.1838357 -5.0390625 51.0546875 C-1.48564834 44.49824855 3.93292907 39.67317345 9.25 34.5625 C10.77807444 33.07703255 12.30322129 31.58866706 13.82611084 30.09788513 C15.19426566 28.76112797 16.5700758 27.43221918 17.94628906 26.10375977 C20.04119809 24.17159146 20.04119809 24.17159146 21 22 C21.66 22 22.32 22 23 22 C28.24016308 34.60076425 29.47798214 46.31643763 25.18359375 59.5078125 C19.88338148 72.23719259 11.49839647 81.52771563 -1.2265625 86.9921875 C-12.80349541 91.19901664 -27.05034964 92.43516175 -38.58984375 87.31640625 C-51.62505532 80.19668777 -60.18824659 71.14539557 -65 57 C-65.36480469 56.03707031 -65.72960937 55.07414062 -66.10546875 54.08203125 C-69.3304733 42.97055269 -67.06963877 30.41454735 -61.57421875 20.40234375 C-60.13911605 18.1810866 -58.62061959 16.088515 -57 14 C-56.2575 12.96875 -55.515 11.9375 -54.75 10.875 C-39.91856224 -4.63059402 -19.44097687 -8.39071063 0 0 Z " fill="#FE501B" transform="translate(217,272)"/>
<path d="M0 0 C10.23 0 20.46 0 31 0 C31 18.48 31 36.96 31 56 C49.15 56 67.3 56 86 56 C86 63.67121397 85.98541208 71.18365884 85.5 78.8125 C85.45230469 79.61236328 85.40460938 80.41222656 85.35546875 81.23632812 C85.2404129 83.15776078 85.12074152 85.07891625 85 87 C77.29616583 87.02350257 69.59234057 87.04110321 61.88847923 87.05181217 C58.30861491 87.05696018 54.72877567 87.06390429 51.14892578 87.07543945 C34.40708248 87.12800327 17.71997425 86.98542307 1 86 C0.26639554 57.32699171 -0.14136994 28.68239023 0 0 Z " fill="#FF4F19" transform="translate(375,49)"/>
<path d="M0 0 C3.6468449 1.21561497 4.1869709 2.66234323 5.90625 5.96166992 C15.23350833 24.96286735 18.65489319 45.05557357 12.18359375 65.65625 C11.79300781 66.7596875 11.40242188 67.863125 11 69 C10.49146484 70.53140625 10.49146484 70.53140625 9.97265625 72.09375 C2.67712103 91.82544668 -12.85019348 105.63763426 -31.3125 114.8125 C-44.26393896 120.2737217 -57.07721047 121.62730967 -71 121 C-71 120.67 -71 120.34 -71 120 C-68.03 120 -65.06 120 -62 120 C-62 110.43 -62 100.86 -62 91 C-63.98 91 -65.96 91 -68 91 C-68 90.67 -68 90.34 -68 90 C-67.12859375 89.97421875 -66.2571875 89.9484375 -65.359375 89.921875 C-53.66902332 89.36519159 -43.51147147 87.03021805 -34 80 C-33.40703125 79.58234375 -32.8140625 79.1646875 -32.203125 78.734375 C-23.32084941 71.89580884 -18.08828482 61.48195816 -16.5 50.5625 C-15.44533374 39.84005966 -17.01704781 30.95738047 -21 21 C-14.07 14.07 -7.14 7.14 0 0 Z " fill="#C9C4CA" transform="translate(260,272)"/>
<path d="M0 0 C37.70124351 -1.74468235 73.24854942 9.69383767 103 33 C100.63677895 38.43909855 96.24452695 42.1639623 92.125 46.3125 C91.30902344 47.16134766 90.49304688 48.01019531 89.65234375 48.88476562 C88.46705078 50.08069336 88.46705078 50.08069336 87.2578125 51.30078125 C86.5373877 52.03466064 85.81696289 52.76854004 85.07470703 53.5246582 C83 55 83 55 80.93310547 54.85644531 C78.43998389 53.75188981 76.23577203 52.28071547 73.97753906 50.76220703 C53.46643404 37.0222989 31.12923137 32.68102571 7 30 C7 20.43 7 10.86 7 1 C4.69 1 2.38 1 0 1 C0 0.67 0 0.34 0 0 Z " fill="#C9C5CB" transform="translate(190,163)"/>
<path d="M0 0 C14.58278521 0.27266981 28.52601575 4.24262711 41.68945312 10.31689453 C43.29240234 11.04585937 43.29240234 11.04585937 44.92773438 11.78955078 C51.42532535 14.88560747 58.47899277 18.26782012 63.68945312 23.31689453 C63.68945312 27.31689453 63.68945312 27.31689453 62.58850098 28.89886475 C62.07331909 29.40516418 61.55813721 29.91146362 61.02734375 30.43310547 C60.44674194 31.01340515 59.86614014 31.59370483 59.26794434 32.19158936 C58.63360474 32.80528381 57.99926514 33.41897827 57.34570312 34.05126953 C56.70201782 34.68929504 56.05833252 35.32732056 55.3951416 35.98468018 C53.3357673 38.02165234 51.26292689 40.04428589 49.18945312 42.06689453 C47.79140866 43.44487911 46.39426147 44.82377465 44.99804688 46.20361328 C41.57217357 49.58536817 38.13415737 52.9543274 34.68945312 56.31689453 C30.46643098 54.94781032 26.60352387 53.35511173 22.62695312 51.37939453 C12.4115658 46.60834432 1.72713103 45.12786011 -9.31054688 43.31689453 C-9.33519262 37.35376287 -9.35338087 31.39066059 -9.36547852 25.42749023 C-9.37051966 23.39721155 -9.37735244 21.36693651 -9.38598633 19.33666992 C-9.39806155 16.42512107 -9.40377722 13.51362003 -9.40820312 10.60205078 C-9.41336441 9.68851334 -9.4185257 8.77497589 -9.42384338 7.83375549 C-9.42403856 5.66114026 -9.37266492 3.48862157 -9.31054688 1.31689453 C-7.13587973 -0.85777261 -2.92459566 0.0064324 0 0 Z " fill="#EE2700" transform="translate(206.310546875,193.68310546875)"/>
<path d="M0 0 C0 6.93 0 13.86 0 21 C7.26 21 14.52 21 22 21 C18.48055145 25.1060233 15.1073784 29.02148341 11.34326172 32.84960938 C10.47571259 33.73322144 9.60816345 34.6168335 8.71432495 35.52722168 C4.80327634 39.48306131 0.89038101 43.43697013 -3.03173828 47.38183594 C-5.1045549 49.46809218 -7.1698188 51.56142214 -9.22900391 53.66113281 C-11.72770382 56.20897513 -14.23829505 58.74448614 -16.75811386 61.2714386 C-17.71367071 62.23371916 -18.66495871 63.20025824 -19.61185074 64.17106628 C-20.93015915 65.52081183 -22.26572194 66.85364022 -23.60205078 68.18554688 C-24.35672638 68.94830933 -25.11140198 69.71107178 -25.88894653 70.49694824 C-28 72 -28 72 -30.11764526 71.89318848 C-33.16715072 70.44618007 -35.09223251 67.89271081 -37.25 65.375 C-41.53885646 60.52012726 -45.9648065 56.09740675 -51 52 C-49.45071235 48.30600749 -47.20284832 45.95517369 -44.38256836 43.13964844 C-43.91571121 42.67089294 -43.44885406 42.20213745 -42.96784973 41.71917725 C-41.43001796 40.17765324 -39.88512739 38.64342601 -38.33984375 37.109375 C-37.26856136 36.03928499 -36.19764867 34.96882476 -35.12709045 33.89801025 C-32.88655427 31.65903604 -30.64270389 29.42345626 -28.39624023 27.19042969 C-25.51022987 24.32146008 -22.63089776 21.44589995 -19.7537756 18.56801987 C-17.54512293 16.35963838 -15.33387955 14.15386696 -13.12173653 11.94898224 C-12.05854642 10.88898327 -10.9959688 9.82836962 -9.93400383 8.76714325 C-8.45451718 7.28981256 -6.97179288 5.81581472 -5.48803711 4.34277344 C-4.64357529 3.50212341 -3.79911346 2.66147339 -2.92906189 1.79534912 C-1 0 -1 0 0 0 Z " fill="#FFB74C" transform="translate(376,114)"/>
<path d="M0 0 C0.66 0 1.32 0 2 0 C7.24016308 12.60076425 8.47798214 24.31643763 4.18359375 37.5078125 C-1.1261595 50.26010691 -9.58132327 59.73198335 -22.4375 65.03515625 C-29.31619986 67.62515452 -33.26204489 68 -41 68 C-41 58.43 -41 48.86 -41 39 C-38.03 38.01 -35.06 37.02 -32 36 C-28.8453282 33.49060198 -26.96023277 30.96486235 -25.03125 27.50390625 C-21.35703993 21.56483716 -16.23583148 16.95194051 -11.25 12.125 C-9.33497671 10.25619049 -7.42496939 8.38244154 -5.515625 6.5078125 C-4.67290039 5.68941895 -3.83017578 4.87102539 -2.96191406 4.02783203 C-0.9511729 2.15277309 -0.9511729 2.15277309 0 0 Z " fill="#EE2701" transform="translate(238,294)"/>
<path d="M0 0 C2.78970199 1.10516813 4.3845972 2.88308687 6.47802734 5.01895142 C7.74453125 6.29995728 7.74453125 6.29995728 9.03662109 7.60684204 C9.90931641 8.50467407 10.78201172 9.4025061 11.68115234 10.32754517 C12.56931641 11.22924438 13.45748047 12.1309436 14.37255859 13.05996704 C16.56563549 15.28841615 18.75141278 17.52356109 20.93115234 19.76504517 C16.02839314 31.82706363 0.641859 45.79246943 -10.06884766 52.76504517 C-17.71265704 55.62657909 -25.31029907 54.92752692 -33.06884766 52.76504517 C-35.30076704 45.14132053 -36.07260721 38.28505984 -33.06884766 30.76504517 C-28.82879569 24.42433038 -23.2751497 19.11079752 -17.81884766 13.82754517 C-17.09446503 13.12080658 -16.3700824 12.41406799 -15.62374878 11.68591309 C-13.51897199 9.6559875 -11.39011415 7.6577576 -9.24072266 5.67520142 C-8.58312454 5.0616983 -7.92552643 4.44819519 -7.2480011 3.81610107 C-6.62781601 3.26566132 -6.00763092 2.71522156 -5.36865234 2.14810181 C-4.82682312 1.66152603 -4.2849939 1.17495026 -3.72674561 0.67362976 C-2.06884766 -0.23495483 -2.06884766 -0.23495483 0 0 Z " fill="#FFB74C" transform="translate(489.06884765625,2.234954833984375)"/>
<path d="M0 0 C15.89235481 0 27.35887823 3.41212602 41 11 C41 16.6382457 35.22019033 20.42237204 31.4375 24.25 C30.54224609 25.19875 29.64699219 26.1475 28.72460938 27.125 C27.84482422 28.01703125 26.96503906 28.9090625 26.05859375 29.828125 C25.25736084 30.6521582 24.45612793 31.47619141 23.63061523 32.32519531 C17.72869848 36.08270333 5.47303805 31.17279387 0 30 C0 20.1 0 10.2 0 0 Z " fill="#C9C5CA" transform="translate(198,238)"/>
<path d="M0 0 C0 6.93 0 13.86 0 21 C6.93 21 13.86 21 21 21 C19.02 23.31 17.04 25.62 15 28 C13.70255859 29.74603516 13.70255859 29.74603516 12.37890625 31.52734375 C8.66655606 36.19222672 5.21228361 40.33991153 -0.84667969 41.58496094 C-7.5888263 42.12830734 -14.28506831 41.72717125 -21 41 C-22.45635034 32.70175115 -23.85246623 23.5245754 -19.16748047 16.09326172 C-5.71551157 0 -5.71551157 0 0 0 Z " fill="#FFB64C" transform="translate(427,64)"/>
<path d="M0 0 C0.66 0.33 1.32 0.66 2 1 C2 1.99 2 2.98 2 4 C3.68427079 6.10139405 3.68427079 6.10139405 5.9375 8.23046875 C6.74960938 9.03291016 7.56171875 9.83535156 8.3984375 10.66210938 C9.68621094 11.91217773 9.68621094 11.91217773 11 13.1875 C11.85851562 14.03248047 12.71703125 14.87746094 13.6015625 15.74804688 C15.7278365 17.83888298 17.86078464 19.92241983 20 22 C22.49361571 20.79618552 24.68143083 19.54571278 27 18 C26.38264059 23.40189485 23.94369771 26.29190201 19.9375 29.8125 C14.08123232 32.17992736 7.46708889 31.97915157 1.625 29.5625 C-2.97251918 26.88534377 -5.22890095 22.91520608 -7 18 C-8.08512427 13.25925217 -7.10742016 9.72542616 -4.625 5.625 C-3.1866671 3.51376282 -1.81288401 1.81288401 0 0 Z " fill="#FDF9F8" transform="translate(187,301)"/>
<path d="M0 0 C6.26222686 0 9.04510597 0.01640217 14.5 2 C16.06234375 2.556875 16.06234375 2.556875 17.65625 3.125 C18.4296875 3.41375 19.203125 3.7025 20 4 C18.57937485 7.2268998 16.85754559 9.39942512 14.375 11.890625 C13.66859375 12.59960938 12.9621875 13.30859375 12.234375 14.0390625 C11.49703125 14.76867187 10.7596875 15.49828125 10 16.25 C8.89398438 17.36761719 8.89398438 17.36761719 7.765625 18.5078125 C7.05921875 19.21164062 6.3528125 19.91546875 5.625 20.640625 C4.97789062 21.28547852 4.33078125 21.93033203 3.6640625 22.59472656 C2 24 2 24 0 24 C0 16.08 0 8.16 0 0 Z " fill="#EE2C03" transform="translate(197,268)"/>
<path d="M0 0 C1.69270833 1.49739583 3.38541667 2.99479167 5.078125 4.4921875 C6.97418746 5.9797487 8.81290005 7.00322436 11 8 C12.65 6.68 14.3 5.36 16 4 C15.49445676 8.42350331 14.04984798 10.78071602 11 14 C6.82465337 17.18644874 5.70164985 17 0 17 C0 11.39 0 5.78 0 0 Z " fill="#B3ABAB" transform="translate(198,315)"/>
<path d="M0 0 C0 6.27 0 12.54 0 19 C-7.875 12.25 -7.875 12.25 -10 9 C-8.33333333 7.33333333 -6.66666667 5.66666667 -5 4 C-4.2575 3.236875 -3.515 2.47375 -2.75 1.6875 C-1 0 -1 0 0 0 Z " fill="#FFB850" transform="translate(197,294)"/>
</svg>
